<mxfile host="app.diagrams.net" modified="2024-04-19T03:24:32.012Z" agent="Mozilla/5.0 (Macintosh; Intel Mac OS X 10_15_7) AppleWebKit/537.36 (KHTML, like Gecko) Chrome/123.0.0.0 Safari/537.36" etag="ufT8Cpta2Sxh_u5V5U6S" version="24.2.5" type="device">
  <diagram name="Page-1" id="AQ5aV_wb17jWuKlxCMah">
    <mxGraphModel dx="830" dy="549" grid="1" gridSize="10" guides="1" tooltips="1" connect="1" arrows="1" fold="1" page="1" pageScale="1" pageWidth="850" pageHeight="1100" math="0" shadow="0">
      <root>
        <mxCell id="0" />
        <mxCell id="1" parent="0" />
        <mxCell id="qfa1btVLkUmNwRNvI4Ii-1" value="&lt;font color=&quot;#ffffff&quot; face=&quot;Arial&quot; style=&quot;font-size: 20px;&quot;&gt;&lt;b&gt;Component&lt;/b&gt;&lt;/font&gt;" style="rounded=1;whiteSpace=wrap;html=1;fillColor=#6241c5;verticalAlign=top;strokeColor=none;arcSize=5;" parent="1" vertex="1">
          <mxGeometry x="130" y="150" width="290" height="120" as="geometry" />
        </mxCell>
        <mxCell id="qfa1btVLkUmNwRNvI4Ii-4" value="&lt;font face=&quot;Arial&quot; style=&quot;font-size: 20px;&quot;&gt;&lt;span style=&quot;&quot;&gt;Encrypted Attest Data&lt;/span&gt;&lt;/font&gt;" style="rounded=1;whiteSpace=wrap;html=1;fillColor=#d7cdf8;verticalAlign=middle;strokeColor=none;fontStyle=0" parent="1" vertex="1">
          <mxGeometry x="280" y="190" width="120" height="70" as="geometry" />
        </mxCell>
        <mxCell id="qfa1btVLkUmNwRNvI4Ii-10" value="" style="rounded=1;whiteSpace=wrap;html=1;fillColor=#6241c5;verticalAlign=top;strokeColor=none;arcSize=6;" parent="1" vertex="1">
          <mxGeometry x="130" y="280" width="460" height="100" as="geometry" />
        </mxCell>
        <mxCell id="qfa1btVLkUmNwRNvI4Ii-12" value="" style="shape=flexArrow;endArrow=classic;html=1;rounded=0;fillColor=#D7CDF8;strokeColor=none;exitX=0.5;exitY=0.857;exitDx=0;exitDy=0;exitPerimeter=0;" parent="1" source="qfa1btVLkUmNwRNvI4Ii-15" edge="1">
          <mxGeometry width="50" height="50" relative="1" as="geometry">
            <mxPoint x="210" y="130" as="sourcePoint" />
            <mxPoint x="210" y="310" as="targetPoint" />
          </mxGeometry>
        </mxCell>
        <mxCell id="qfa1btVLkUmNwRNvI4Ii-13" value="&lt;font style=&quot;font-size: 20px;&quot; face=&quot;Arial&quot; color=&quot;#ffffff&quot;&gt;&lt;b&gt;AP&lt;/b&gt;&lt;/font&gt;" style="rounded=1;whiteSpace=wrap;html=1;fillColor=#6241c5;verticalAlign=top;strokeColor=none;arcSize=4;" parent="1" vertex="1">
          <mxGeometry x="430" y="150" width="160" height="173" as="geometry" />
        </mxCell>
        <mxCell id="qfa1btVLkUmNwRNvI4Ii-11" value="&lt;font face=&quot;Arial&quot; style=&quot;font-size: 20px;&quot;&gt;&lt;span style=&quot;&quot;&gt;Encrypted Boot Msg&lt;/span&gt;&lt;/font&gt;" style="rounded=1;whiteSpace=wrap;html=1;fillColor=#d7cdf8;verticalAlign=middle;strokeColor=none;fontStyle=0" parent="1" vertex="1">
          <mxGeometry x="450" y="190" width="120" height="70" as="geometry" />
        </mxCell>
        <mxCell id="qfa1btVLkUmNwRNvI4Ii-15" value="&lt;font face=&quot;Arial&quot; style=&quot;font-size: 20px;&quot;&gt;&lt;span style=&quot;&quot;&gt;Encrypted Boot Msg&lt;/span&gt;&lt;/font&gt;" style="rounded=1;whiteSpace=wrap;html=1;fillColor=#d7cdf8;verticalAlign=middle;strokeColor=none;fontStyle=0" parent="1" vertex="1">
          <mxGeometry x="150" y="190" width="120" height="70" as="geometry" />
        </mxCell>
        <mxCell id="qfa1btVLkUmNwRNvI4Ii-16" value="Decrypt" style="ellipse;whiteSpace=wrap;html=1;fillColor=#D7CDF8;strokeColor=none;fontSize=20;fontFamily=Arial;" parent="1" vertex="1">
          <mxGeometry x="160" y="310" width="100" height="50" as="geometry" />
        </mxCell>
        <mxCell id="qfa1btVLkUmNwRNvI4Ii-17" value="Decrypt" style="ellipse;whiteSpace=wrap;html=1;fillColor=#D7CDF8;strokeColor=none;fontSize=20;fontFamily=Arial;" parent="1" vertex="1">
          <mxGeometry x="290" y="310" width="100" height="50" as="geometry" />
        </mxCell>
        <mxCell id="qfa1btVLkUmNwRNvI4Ii-18" value="Decrypt" style="ellipse;whiteSpace=wrap;html=1;fillColor=#D7CDF8;strokeColor=none;fontSize=20;fontFamily=Arial;" parent="1" vertex="1">
          <mxGeometry x="460" y="310" width="100" height="50" as="geometry" />
        </mxCell>
        <mxCell id="qfa1btVLkUmNwRNvI4Ii-19" value="" style="shape=flexArrow;endArrow=classic;html=1;rounded=0;fillColor=#D7CDF8;strokeColor=none;" parent="1" edge="1">
          <mxGeometry width="50" height="50" relative="1" as="geometry">
            <mxPoint x="340" y="250" as="sourcePoint" />
            <mxPoint x="340" y="310" as="targetPoint" />
          </mxGeometry>
        </mxCell>
        <mxCell id="qfa1btVLkUmNwRNvI4Ii-20" value="" style="shape=flexArrow;endArrow=classic;html=1;rounded=0;fillColor=#D7CDF8;strokeColor=none;" parent="1" edge="1">
          <mxGeometry width="50" height="50" relative="1" as="geometry">
            <mxPoint x="510" y="250" as="sourcePoint" />
            <mxPoint x="510" y="310" as="targetPoint" />
          </mxGeometry>
        </mxCell>
        <mxCell id="qfa1btVLkUmNwRNvI4Ii-5" value="&lt;div style=&quot;&quot;&gt;&lt;span style=&quot;font-size: 20px; font-family: Arial; background-color: initial;&quot;&gt;Key&lt;/span&gt;&lt;/div&gt;" style="rounded=1;whiteSpace=wrap;html=1;fillColor=#d7cdf8;verticalAlign=top;strokeColor=none;fontStyle=0;align=center;container=0;" parent="1" vertex="1">
          <mxGeometry x="400" y="289" width="50" height="71" as="geometry" />
        </mxCell>
        <mxCell id="qfa1btVLkUmNwRNvI4Ii-6" value="" style="shape=image;verticalLabelPosition=bottom;labelBackgroundColor=default;verticalAlign=top;aspect=fixed;imageAspect=0;image=data:image/png,iVBORw0KGgoAAAANSUhEUgAAAgAAAAIACAYAAAD0eNT6AAAAAXNSR0IArs4c6QAAIABJREFUeAHt3Qm4ted4L/B/EpEgJIRIjMkJ0pqJE0VKq6rSFtVGDA1FTQ3qGKqnykXVcbSqxFCV6qEhxDzVUKGk1JiapeY5EiIxJ0TE2Y/urSsr37CHNTzDb13Xd+21vr32Ws/zu5/3ve/nHRMPAgQIECBAgAABAgQIECBAgAABAgQIECBAgAABAgQIECBAgAABAgQIECBAgAABAgQIECBAgAABAgQIECBAgAABAgQIECBAgAABAgQIECBAgAABAgQIECBAgAABAgQIECBAgAABAgQIECBAgAABAgQIECBAgAABAgQIECBAgAABAgQIECBAgAABAgQIECBAgAABAgQIECBAgAABAgQIECBAgAABAgQIECBAgAABAgQIECBAgAABAgQIECBAgAABAgQIECBAgAABAgQIECBAgAABAgQIECBAgAABAgQIECBAgAABAgQIECBAgAABAgQIECBAgAABAgQIECBAgAABAgQIECBAgAABAgQIECBAgAABAgQIECBAgAABAgQIECBAgAABAgQIECBAgAABAgQIECBAgAABAgQIECBAgAABAgQIECBAgAABAgQIECBAgAABAgQIECBAgAABAgQIECBAgAABAgTmJLBXkkOSHJ7kyCQPSfKEJM9M8twkJyZ5eZKTtvHvNUleluTFSZ6V5C+TPCzJHyS5fZL/mWS/ObXbxxIgQIAAAQI7Ebh4khsnuUuSxyQ5Psl7V5L9WUl+uoB/5yT5RJI3JnlOkgcnuVWSy+6k3X5NgAABAgQIrFPgYklumOS+q8n2A0l+tIAkv9lC4ssrWwrekOSJSY5Isvc6++ltBAgQIEBgaIFdVxP+w1cT6fcqTvbrKRJ+kuQjq7sU7mYXwtBjW+cJECBAYEqgbDq/5+q++TMbT/g7KwpKQfC+JI9NcmiSXaYsvCRAgAABAl0L7J/kgUnekuS8zpP+joqCryU5LsmtVw5WLFs/PAgQIECAQHcCl1o9ov4dKzPgMhPeUWIc8XenJXnq6paB7oKvQwQIECAwlkDZxF1OyfvHJN+V9Ndd9HwyyZ+snL6471jDRW8JECBAoHWBcj5+OT3uU5L+upP+trZ6nJvkBSunHB7W+oDQfgIECBDoW+DKSZ6c5GyJf0uJf1vFQDkF8h4rpxiWUyM9CBAgQIBAFQLXTfKiwQ/o21bSnsf/fT7JA5LsUUXkNYIAAQIEhhQ4aPUSu+eb8c98xr+z4uGMlRH3+CSXGXLk6TQBAgQILEWgJP7nr1yKV+Jf/tkMpRAop1TaNbCURcGXEiBAYAyBy63eWGfkc/d3NjNf1u9PXb1p0RgjUS8JECBAYCECu63ud+79Sn3LSt6z/N63u5bAQpYJX0KAAIHuBcptcMvd9maZpHzWfD0vWL1LYtli40GAAAECBDYkUK7RX85BL8lEwm7ToFxd8MgNRd2bCRAgQGBogd9M8hWJv5vCp9yi+MChR7TOEyBAgMAOBfZZPa3PjL/NGf+O4nZOkofuMPp+SYAAAQJDCvz2yoF+p5v1dzPr314x8Ar3GBhy+dZpAgQIXESgnD9eLijjDn39zfq3VwSUawcccZGR4D8IECBAYBiBqyV5t1l/97P+bRUCpeD7axcQGmZZ11ECBAj8XKBs8v+m5D9k8p8sCE5OcsWfjwpPCBAgQKBbgV2S/KXT+4ZP/JNFwJdcPKjb5V3HCBAg8DOBPZOcYNYv+W9jDPxw5dTPP7ScECBAgEB/Agckef82VvyTM0HPxzkQcHux/psku/Y3/PWIAAECYwpcL8kXJX8z/3WOgXKqYNla5EGAAAECDQvcOsn31rni396s0P+Pt2XgbUn2bnjcazoBAgSGFvitJOUKcBI4g82MgY8luerQS5DOEyBAoEGBuyY5T/JX/GxxDJRdRwc1OP41mQABAkMK3CPJj7e44t/MjNHf9Lml4ctJDh5ySdJpAgQINCTwEOf4m/XPofgr1wqwJaChFYGmEiAwlsC9JX/Jfw7Jf23Lji0BY61P9JYAgUYEymZ/N/TpcxP8WgKu4WfZEnD1RpYJzSRAgED3AkcmOX+OM78aEo821FPc/KdbCne/TtFBAgQaELhlknIZVwmSwSLHwPuSXKqB5UMTCRAg0KXAtZOcLfkrfpY0Bl7vdsJdrld0igCBygWu5PK+Ev+SEv/klobjKl9ONI8AAQJdCZRNrx+sYOU/mQg8H3cXxKO6Wrp0hgABApUK7JLkRMnf7L+iMVDOPjmi0uVFswgQINCNwJ9VtOI36x931j8d+3IsiqsFdrOa0RECBGoTuK3T/cz8Ky4AP+LMgNpWGdpDgEAPAuWubN+seOU/PSP0esytAy/uYWHTBwIECNQicLEk75L8zf4bGQPH1LLgaAcBAgRaF3hSIyt+s/4xZ/3TcT83yfVaX+i0nwABAssWuI1r/M985n/e6gWUyr3uy2VtT0nyySTlOvflYDa3Ut56IVNOU734shce30+AAIFWBfZJ8hWz/w0XAKcneUeSf0zy6CRHJTk0yRWS7LbOwbB7kv2SHJbkbisHXz5m5SY4z0/yziRnism6YvLX67T2NgIECBCYEvgniWZdieZzSY5Pcv8k15kynNfLciXGOyc5dnULwgVidZFYlesD3HpeAfC5BAgQ6FXg9hLKRRLK2r7m7yR5UZI7rSTgy1YyAMrWhbKl4eVJfiB2P49d2YJVtmR5ECBAgMA6BEpSK5ux1xKen8l3k5yQ5HeS7LkOw2W+pVyq+S5JXpHkHHHM85YZDN9NgACBlgSeI2n8vPj5QJLfbyDpb298lWLgD5N8dOCYlt0j5WBWDwIECBDYgUA56KzsOx151n/+6qb0w3fg1Nqvyj0cShL850Hj+wVXCWxtyGovAQKLFChHqP/HwMm/bC5/apIDF4m+hO+6VpKyledHg8X6/y7B2lcSIECgCYFyBbURZ/5li0c5ir9c7nikxzVXLpjzyoFiXgqeQ0YKsL4SIEBgPQKXTnLGQMlgrdB5T5KbrQeo4/fcdKBLPZ/UcRx1jQABApsSKJtH15LiCD8/m+SOm5Lq84/KMQLlgkNfHWAc/HafIdQrAgQIbFzgKoOdO1429++1caYh/mLvJM/tvAg4NUm5wZUHAQIEhhcol5gdYdZ/WpLbDR/t9QGUqwz2fPvne6+PwbsIECDQr8A1Brn5zEuSXK7fMM6lZwesnjbYY3H45SR7zEXNhxIgQKARgd5n/+WyuEc3Eotam/mgTk8ZfECt4NpFgACBeQsc3Pnsv8zybjJvxEE+/xYrNzv6Wme7isrtl90yeJABrJsECFxY4B86W6FPbqo+Ocm+F+6uV1sUKHcg7O1CUffZook/J0CAQHMC5V7z53ZaAJSb4FyiuYi00eByb4HXdzRuPpmknALpQYAAgWEEntDRSnxy5v/0JLsOE8XldLScQtfTsSO3XQ6jbyVAgMDiBS6Z5MwOC4AnL55y2G8ss+ZjOxlDbxw2ijpOgMBwAvfrZMU9OfN/7HBRXH6HSxFQtrhMxqHF5+V2weW+CB4ECBDoXqDc477FFfX22lySkMdyBEoRcFwH48nWo+WMH99KgMACBa7fwcp6shB4gYO4Fjh6tv1V5TbSL218XJUbYe2+7e75XwIECPQh8KzGV9STyf9NSUry8Vi+wJ5Jyp0VJ+PT2vM7LZ9RCwgQIDAfgbKS/lbjK+m1pPKJJOXGNR71COyfpFx8aS1Grf18WT2UWkKAAIHZCvxuwyvnyWRSiphyFUOP+gRu1PD1Jb7v+hH1DSgtIkBgNgJlhjOZSFt9Xu5b71GvwAMbHme/Uy+rlhEgQGBzAnslKTfGaTXpr7W7HMPgUb/AiY2OtRfWT6uFBAgQ2JjA3RtdIa8l/vKzXLbVJX43FvdlvXufJF9tcMyV3UtuELSsUeN7CRCYi0CrM7K1AuAnSQ6fi4wPnZfAbzZYAJTxdsS8QHwuAQIEFi1Qzm9u/ej/py4azffNROD4BouA582k5z6EAAECFQj8SoMr4bWZf/l5WpJLV+CoCRsXuGKSbzc2/sp48yBAgEAXAk9pbAU8mfzL89/vIgrjduKhDY4/p5mOO171nEBXAh9qcAW8VgS816V+mx+L5fbBn2psDN6reXUdIEBgeIHLJSkH0K0l1NZ+/trwEewD4K6NjUHHAfQx7vSCwNACd2xsxTtZoLx16Mj11fldk3y4obH46b749YYAgREFntbQSncy+Zfn5eBFj34EjmpsLB7QD72eECAwosD7GlvprhUBHxgxWJ33udy58bMNjcc7dx4P3SNAoGOBckWzHza0wl1L/uXnXTqOy8hdO6ah8Vi2nnkQIECgSYFDG1rZTib/M5KUixd59CdQ7knx3UbG5b/0x69HBAiMItDqXdmeNEqABu1nOcJ+suCr9fmXB42PbhMg0IHAcxpZ0U4mgAuSuAhLB4NvB134pUbGZRmLrkC5g0D6FQEC9Qqc3MiKdrIAKBf+8ehfoJWDAW/Sfyj0kACBHgW+0WAB8LAeA6FPFxF4ciNj8+iLtNx/ECBAoHKBfRtZwU7O/svzq1XuqnmzESgz6+nY1/ja8SizibdPIUBggQI3b2QFO7nS//gCfXzVcgXKlQHL2R6T8a/x+auWy+TbCRAgsHGBuzewcp1e4Ze7FnqMI3B8A2P0lHHCoacECPQi8KgGVq7TBcBv9IKvH+sSuEcDY/RL6+qJNxEgQKAigWc1sHKdLADKHQv3rshPU+YvcFADY/Tc+TP4BgIECMxW4LUNrFwnC4CPzLb7Pq0RgdMaGKeuBdDIYNJMAgT+S+A9DaxYJwuAfxC4IQVe3cA4/R9DRkanCRBoVuAzDaxYJwuABzcrreFbEXhCA+O0XLnQgwABAs0InN3AinWyALhVM7IaOkuBoxoYp7efZYd9FgECBOYpUO67Xg6qm0ywtT+/4jxBfHa1AtdrYJzeq1o9DSNAgMCUQDmavvaEP9m+HyTZZaoPXo4hUG4PPDkWanx+3zFCoZcECPQgsF8DK9XJFf2pPaDrw6YFvln5eH3ApnvmDwkQILBggatWvkKdTP7l+UkL9vF1dQl8qPLxekxdXFpDgACB7Qtco/IV6nQB8JLtd8VvBhB4a+Xj1RkqAwxCXSTQi8C1K1+hThcAz+4FXj82JfDSysfrQzfVK39EgACBJQgcUvkKdboAcMvVJQySir7yuMrH68MqstIUAgQI7FDg4MpXqNMFwON32Bu/7F2g9vtWPLL3AOgfAQL9CFytsQLg0f3Q68kmBJ5a+Xi1C2ATQfUnBAgsR+BKla9Qp7cA/NlymHxrJQJPqXy83rMSJ80gQIDATgUuU/kKdboAeNxOe+QNPQs8o/Lxeoee8fWNAIG+BMpV9c6vfKU6WQQ8sS9+vdmgwHMrH6u33GB/vJ0AAQJLFfhW5SvVyQLg6UuV8uXLFnhR5WP1+ssG8v0ECBDYiMAXK1+pThYAL9xIx7y3O4E3Vz5Wy0G1HgQIEGhG4JTKV6qTBcAbm1HV0HkIvL/ysVqOqfEgQIBAMwKvrXylOlkAfLAZVQ2dh8BXKh6rP3anynmE3GcSIDBPgedUvFKdTP7l+dnzhPDZVQtcPMlPKh6rn69aT+MIECCwDYHHVrxSnS4Ayuu9t9EH/9W/wDUrH6fuVNn/GNRDAt0J3KvyFet0EXCT7iKgQ+sR+M3Kx2k5RdGDAAECTQkcXvmKdboAuE9Tuho7K4E/rXyclvZ5ECBAoCmB/SpfsU4XAE9rSldjZyVQ+zUA7jyrjvocAgQILFKgpYsB/dsiYXxXNQKnVl6oHlqNlIYQIEBgAwLvq3zlOrkV4Jwk5Yhwj3EE9k1yQeVjdJ9xwqGnBAj0JHBc5SvXyQKgPP+lnvD1ZacC5SY702Ogpten77QH3kCAAIFKBf6o8hXs9MrebYErHUhzala5B8T0GKjp9evm1G8fS4AAgbkLlBl1TSvUnbXl5LmL+IKaBD5Z+fgs19LwIECAQJMCl2zstsDlsqsuCNTkUNtwow+qPPmXYvV2G+6VPyBAgEBFAh9uYEU7uWXg6IrsNGV+Ao+ofFyWgxPLQYoeBAgQaFbgmZWvaCeTf3n++malNXwjArXfAfCzG+mM9xIgQKBGgaMaKwB+lOSyNUJq08wEyub/2k//O3FmvfVBBAgQWJLAAY0VAGUrwIOXZOVrFyPwFw2MyYcvhsK3ECBAYL4CtR9tPb0b4KPz5fDpSxTYLclXGigArr9EI19NgACBmQnUfr71dAFQXt98Zr33QTUJ3L6B5H9akl1qQtMWAgQIbFbgiAZWutNFwCs221l/V7VAudbDdKxre/2PVQtqHAECBDYgcIkk5Vr7ta1od9SenyT5xQ300VvrFziskTHoDoD1jyUtJEBgAwJvbGTlO1kU/MMG+uet9Qu8poExWC5G5SyU+seSFhIgsAGB+zSw8p1M/uX5+Ul+YQN99NZ6BW7SwKl/Zcy9q15CLSNAgMDmBMqsppxjP51ka3/94s11119VJnBSI2PvMZW5aQ4BAgRmIvDmRlbCk0VJORag7Dv2aFegpYNQr9Mus5YTIEBg+wIt7gYoxUC5bOyu2++W31QssEeSTzdSeH6wYkdNI0CAwJYELpPkB42sjCe3ApTn99tSz/3xsgQe3dB4c/W/ZY0S30uAwEIEjm9ohTxZBHw7yVUXIuRLZiVwSEOnn5YDTvefVcd9DgECBGoU+NVGC4BSDLzFFdpqHFLbbFPZZfPOhsbam7bZC/9JgACBjgTKJU4/19CKeXIrQHl+345i0XNX/qyxMXZ0z8HQNwIECKwJPLKxlfNkEXBukhusdcTPKgV+Kcl5DY2x7yfZq0pJjSJAgMCMBco1AcpKbzKxtvT81CSXmrGJj5uNwOUbudvf5Hh/3my67lMIECDQhsBzGi4Aysr7VU4NrG6g7Z7kbQ2OK7f+rW4oaRABAvMUuHYjl2adnKlNP3/iPIF89oYFnttg8v+XDffSHxAgQKADgdc2uMKeLAIuSHLvDuLQQxdaPa7kdj3g6wMBAgQ2KtDK7Vknk/7083L+ttu3bjTys33/PRvdmvRxp5XOdiD4NAIE2hIom0Cnk2prr3+4che327TF3k1rj1y9a2NrY6a01yml3QxDHSFAYDMCt+ygACgr83OSlJvOeCxO4K5Jftzo+Pl6kj0XR+WbCBAgUKdAi3cJ3NaMs9zu+HfqJO6uVWWzf9n9sq04tPB/f95dRHSIAAECmxAop0GV2+62sOLeWRtLUnrQJgz8yfoFHtr4eCmz/0uvv7veSYAAgb4FXtxJAbBWIBzrOgEzH7C7JXl2B+Pkj2Yu4wMJECDQsMDBScom9LUE2sPPcrGgcgtkj60LlCv8vbWD8fGZJOWCRR4ECBAgMCHwVx2s4KcLl08luc5EHz3duMANk3y+k7Fx1Ma77y8IECDQv0C5IcpXO1nRTxYCP0hS9luXOyF6rF+geN0/SfGb9Gz1+YftFlp/8L2TAIHxBO7eycp+W0mqXPPgyuOFdFM9vnqSt3c2FlwrYlNDwR8RIDCKQJn19bbinywGvpnkLqMEc5P9LBfI+W5nyf91m7TwZwQIEBhK4FqrF9aZTJy9PX9JkgOGiurOO3tgkn/uLPGXcfu9JFfbefe9gwABAgSKwJ90mAimi5iyb/vJzglPOfbj8UnO7TTm5fgPDwIECBBYp0A55/v9nSaE6ULgtNWD3UqfR3qU0+HKQX7lwjjTJr28LmN4tLiONIb1lQCBOQmUU6Z6SQTr6cdHktxhgCPFL5akXMf/053Ht9ynoJzC6EGAAAECGxC4wcoldc/sPEFsryj47Mrm8D9NsvcGvFp4a7koUtkc/sVB4lqua+FBgAABAhsQuFGScrT89hLkKP//rSQliVx1A3Y1vvUaSZ6xejDcKLErRdwlawyGNhEgQKBWgRsnOUvyv1DxUzYll2sIlNPj9q01cFPt2j/JMaundPZyo6f1Fi/lktaHTXl4SYAAAQI7EDDz3/lWj3K3wXetbkq/4g4sl/GrUpyU2/S+PkkpWtabMHt73yOWge87CRAg0KqAmf/GE2YpBj6xcj2B564m3oMWHPwrrXz/nZOUOx+e0vgtemdVhLzJJZ8XPAp9HQECTQvcNMm3B54xzir5lM/5QpJya+VyXv3RK7sObrZyC90rbHF0lM35h6989h+snKHwhCQv7fSeDVuNQzmdc6vWWwyVPydAgEA7AiVBSf4bn/1vNFl9J0k5zfCdq8cTvCzJ81cS1rNXL0b0nCQvSFL+/6TV3QwfS/J9hdm6dmWcl+SX21nstJQAAQLLFbh5kpKYNprMvJ9ZbWPgActdlHw7AQIE2hG4RYc3fKktKWnPYgqlv2tnsdNSAgQILFeg7E/u7W5vku1ikm1tzuWMjIsvd3Hy7QQIEGhD4Fb2K9vl0clun3Kxn/3aWOy0kgABAssVKAdJlVuj1jaL0x4x2egY+MbK2RblttUeBAgQILATgVtK/gqfToq/svvq0J2Md78mQIAAgZXLwdrsb4a90Rl2re8vp/v9hqWaAAECBHYucNsk53Qy86s1KWnXYgqscuXFu+x8yHsHAQIECJSZ0rmSv03/HYyBkvzLlRU9CBAgQGAnAreT/CX+DhJ/2bpSkv89djLe/ZoAAQIEkhwh+Uv+kr91AQECBMYSuH2Scj90+6UZtD4Gyji2z3+s9ZfeEiCwSYHfSvJDyV/x08EYKNercLT/JlcE/owAgbEEJH8z/tZn/GvtPyPJjcdafPWWAAECmxP4vSTl/Oi1FaifLFodA59OcvDmFgN/RYAAgbEEjpT8FT6dFH8nJ7nCWIuv3hIgQGBzAndO8uNOVv6tzli1ezZbW56bZPfNLQb+igABAmMJHCX5m/l3UPyVI/3/cKxFV28JECCweYFyapSZ/2xmnmbwy3P8YpKbbX4x8JcECBAYS+Cukr+Zfwcz/1ck2WesRVdvCRAgsHmBu61eFtWsdXmzVvZbsy/3pnjo5hcBf0mAAIHxBO6d5CcdzPwk0K0l0Jb93p3kkPEWXT0mQIDA5gXKQVIjJf9XJjlVsdPNro5yO+pHJNlt84uAvyRAgMB4AvcfLPkfl2TX1VPCHpXk+wqBpguBdyW51niLrR4TIEBgawL3GzT5T6pdKcnxioDmioCzVvf1m/VPjmbPCRAgsA6BY5JcMFDie0aSXXbg8qtJ3j+QR6v7+svpqcc6wn8HI9mvCBAgsAOBBw+W/P92J8l/jaoUCOUCSJ9RCFS5ReDNSa67Fiw/CRAgQGBjAuUUqZFm/n+9MZ6fvbtcMrYUSV9VCFRRCJSj+39lE3H0JwQIECCwKvCwwZL/k7YY+T2SPCDJ5xUCSykEPprkjluMoT8nQIDA8ALlNKlW9/tupt1/McOIXyzJHzh1cGHjpxzZf4d17raZYZh9FAECBPoTGC35P26OITw8yctcMXEuxUBJ/LefY+x8NAECBIYS+N+DzfxLfxfxODhJObjw7MF8N7M1Zkd/U07ne6pz+RcxZH0HAQIjCTx6sOT0yCUEtxwnUM4ceIOtAhvaKlAO7Cu7VfZcQsx8JQECBLoWeMxAyb+c1VDDDWAOWLmyYClCPjCQ/Y5m99O/++SKS9k9c82ulzydI0CAwBIFykp2euXb6+uS/B+0ROvtffXVk5SzLsp+7ZHuszA9zj6V5ClJDt0elP8nQIAAgdkIlKPfp1fCvb4uyb+cplf7Y/+VUwnvmeRFSc7oPD7lSn3/unpzHtfor31kah8BAt0IPLHz5DJZyJRZdbmLYWuPcrXBG67uKnh1BwXBeUn+PUm55sLtkuzVWkC0lwABAq0LlBXwZILs+fn5qweQtR6ztfaXMwqOTvLMJCdXfGZBKbr+c2Uf/glJHp7kViub9y+11gk/CRAgQGDxAk8eLPn//uKJF/6NV1mdUZdrODxr9SyDU5Ocu4BYn7lyIZ4PJjkxyV+uFieHrZyud+mFK/hCAgQIENiuQDnAqufZ/mTfyv7lu25XYpxflGMKyk1xyh0M75bkIStdf/zKKXWlEHx2kueuXqyoXLBo+t/zVu6k9/TVxP4nSe6f5Mgkt0hyYJJyWqMHAQIECFQuMNpm/7tXHg/NI0CAAAECcxUoB5I9baCZ/4+S3Gmuoj6cAAECBAhULlCS/7GDJX93hKt8UGoeAQIECMxXoCT/ZwyU/H+4ele4+ar6dAIECBAgULFASf7lNLHJg+J6fn7Oyvnlv15xPDSNAAECBAjMXaAk/3IqWM8Jf7JvP1i5hO5t5q7qCwgQIECAQMUCJfmXU7smE2TPz0vyv3XF8dA0AgQIECAwd4GS/P9uoOT//dVz2+cO6wsIECBAgECtArsmef5Ayf/bSW5WazC0iwABAgQILEJgt5Wrsr1gsOR/00XA+g4CBAgQIFCrQEn+/zRQ8v9WknKdeQ8CBAgQIDCsQEn+xw+U/M9OcpNho63jBAgQIEBg5eYsJfm/cKDk/40k1xd5AgQIECAwskBJ/i8aKPl/Pcn1Rg64vhMgQIAAgZL8Txgo+Z+R5DrCToAAAQIERhbYfWUm/MqBkv/pK/env/bIAdd3AgQIECBQkv+rBkr+X17ZzXENYSdAgAABAiMLXDzJqwdK/l9aOcDx4JEDru8ECBAgQKAk/9cMlPy/uHJdg4OEnQABAgQIjCxQkv9rB0r+X1i5ouGBIwdc3wkQIECAQEn+rxso+X8qyZWFnQABAgQIjCywR5LXD5T8P5nkSiMHXN8JECBAgMAlkrxloOR/apIDhJ0AAQIECIwscMkkJw2U/D+c5AojB1zfCRAgQIBASf5vHSj5fyjJ5YWdAAECBAiMLFCS/9sGSv7/kWTfkQOu7wQIECBA4FJJ/nWg5H9KkssJOwECBAgQGFmgJP+3D5T8/z3JZUYOuL4TIECAAIHRkv87k1xa2AkQIECAwMgCZRb87oFm/v8m+Y883PWdAAECBIrA3kneM1Dyf0eSvYSeAAECBAiMLFBxk1nxAAARTElEQVSS/3sHSv5vTlIubORBgAABAgSGFdgnyfsGSv5vSrLnsNHWcQIECBAgkGS05P8Gyd+4J0CAAIHRBUryf/9AM/9yE6NyMyMPAgQIECAwrMBlk3xgoOT/8iS7DxttHSdAgAABAqs3ufnIQMn/pUkuJvIECBAgQGBkgXKHu48OlPxfIvmPPNz1nQABAgSKwH6DJf8Tkuwm9AQIECBAYGSBkvw/NtDM/3lJdh054PpOgAABAgSumOTjAyX/4yR/g54AAQIERhcoyf8TAyX/v0+yy+hB138CBAgQGFtg/8GS/99K/mMPeL0nQIAAgaQk/1MHmvk/RdAJECBAgMDoAldN8pmBkv9fjR5w/SdAgAABAiX5f3ag5P9kISdAgAABAqMLXG2w5P+40QOu/wQIECBAoCT/zw0083+skBMgQIAAgdEFrp7k8wMl/0ePHnD9J0CAAAECBw6U/C9I8r+EnAABAgQIjC5Qkv8XBpn5l+T/x6MHXP8JECBAgMA1k3x1oOT/ICEnQIAAAQKjC1xrsOR/zOgB138CBAgQIHBIktMGmfmfn+ReQk6AAAECBEYXGC3533P0gOs/AQIECBD4hSRfG2jmf7SQEyBAgACB0QV+cbDkf/fRA67/BAgQIECgJP/TB5n5/yjJnYScAAECBAiMLnCDJGcOlPzvOHrA9Z8AAQIECNxwoOT/wyR3EHICBAgQIDC6QEn+3xxk5n9Okl8fPeD6T4AAAQIEbjRQ8v9BktsIOQECBAgQGF3gxknOGmTmX5L/rUcPuP4TIECAAIFDB0r+30/yq0JOgAABAgRGFyjJ/+xBZv7fTnKz0QOu/wQIECBA4OZJvjNQ8r+pkBMgQIAAgdEFbpHku4Mk/28lOWz0gOs/AQIECBAYKfmX3Rs3EXICBAgQIDC6wOEDzfy/keT6owdc/wkQIECAwC8n+d4gm/2/nuR6Qk6AAAECBEYXuOVAyf+MJNcZPeD6T4AAAQIEbpWknP/+0wH+lbsXXlvICRAgQIDA6AK3TVKueT9C8v9ykmuMHnD9J0CAAAECv5Hk3EGS/5eSHCzkBAgQIEBgdIHbDZT8v5jkoNEDrv8ECBAgQOCIgZL/F5IcKOQECBAgQGB0gZGS/6eSXHn0gOs/AQIECBD4rSQ/HGSf/yeTXEnICRAgQIDA6AIjJf//THLA6AHXfwIECBAg8HtJzhtk5v/hJFcQcgIECBAgMLrAkQMl/w8lufzoAdd/AgQIECBw5yQ/HmTm/x9J9hVyAgQIECAwusBRAyX/U5JcbvSA6z8BAgQIELjLQMn/35NcRsgJECBAgMDoAncdKPm/M8mlRw+4/hMgQIAAgbslOX+Qff7/Jvkb8AQIECBAILlPkp8MkvzfkWQvQSdAgAABAqMLjJT835zkEqMHXP8JECBAgMB9B5r5vynJnkJOgAABAgRGF7jfQMn/DZL/6MNd/wkQIECgCNx/oOT/+iR7CDsBAgQIEBhd4AFJLhjkgL+XJ9l99IDrPwECBAgQeOBAyf+lSS4m5AQIECBAYHSBhw2U/F8i+Y8+3PWfAAECBIrAwwfZ5P/TJCck2U3YCRAgQIDA6AKPGCj5Py/JrqMHXP8JECBAgMAjB0r+x0n+BjwBAgQIEEgeNVDy//skuwg6AQIECBAYXeBPB0r+fyv5jz7c9Z8AAQIEisBIyf9vhJwAAQIECBBIHj/QzP+vBJwAAQIECBBInjhQ8n+SgBMgQIAAAQLJEwZK/uVc/5OTXErgCRAgQIDAyAIjzfxL8l/7pwgYedTrOwECBAYX+D8TCXEtMY70UxEw+AKg+wQIEBhRoOwHHynZb6+vioARR78+EyBAYECBcsGbp0n+Fyp+FAEDLgi6TIAAgZEESvI/VvK/UPJf2zKgCBhpSdBXAgQIDCRQkv8zJP9tJn9FwEALgq4SIEBgJIGS/J8p+e8w+SsCRloi9JUAAQIDCJTk/yzJf13JXxEwwAKhiwQIEBhBoCT/Z0v+G0r+ioARlgx9JECAQMcCJfn/neS/qeSvCOh4wdA1AgQI9Cywa5LnS/5bSv6KgJ6XEH0jQIBAhwK7JXmB5D+T5K8I6HAB0SUCBAj0KFCS/z9J/jNN/oqAHpcUfSJAgEBHAiX5Hy/5zyX5KwI6WlB0hQABAj0JlOT/Qsl/rslfEdDTEqMvBAgQ6ECgJP8XSf4LSf6KgA4WGF0gQIBADwIl+Z8g+S80+SsCelhy9IEAAQINC+ye5JWS/1KSvyKg4QVH0wkQINCyQEn+r5L8l5r8FQEtL0HaToAAgQYFLp7k1ZJ/FclfEdDgAqTJBAgQaFGgJP/XSP5VJX9FQItLkjYTIECgIYGS/F8r+VeZ/BUBDS1ImkqAAIGWBEryf53kX3XyVwS0tERpKwECBBoQ2CPJ6yX/JpK/IqCBBUoTCRAg0ILAJZK8RfJvKvkrAlpYsrSRAAECFQtcMslJkn+TyV8RUPGCpWkECBCoWaAk/7dK/k0nf0VAzUuYthEgQKBCgZL83yb5d5H8FQEVLmCaRIAAgRoF9kpy8kDJ/6yB+lpO4fQgQIAAAQIXEbhUkn8dKCE+LslVknxmgD6fk+Q2F4m4/yBAgACB4QVK8n/7AIlwbZN4Sf5rj96LAMl/LdJ+EiBAgMCFBC6T5N2DJv81iF6LAMl/LcJ+EiBAgMCFBPZO8p7Bk/8aSG9FgOS/Flk/CRAgQOBCAiX5v1fyv5BJL0WA5H+hsHpBgAABAmsC+yR5n+S/xnGhn60XAZL/hcLpBQECBAisCUj+axLb/9lqESD5bz+mfkOAAIGhBUryf7+Z/7rGQGtFgOS/rrB6EwECBMYTuGySD0j+Gwp8K0WA5L+hsHozAQIExhEoyf8UyX9TAa+9CJD8NxVWf0SAAIH+Ba6Q5KOS/5YCXWsRIPlvKaz+mAABAv0K7Cf5zyy4tRUBkv/MQuuDCBAg0JdASf4fM/OfaVBrKQIk/5mG1YcRIECgH4ErJvm45D+XgC67CJD85xJWH0qAAIH2BUry/4TkP9dALqsIkPznGlYfToAAgXYF9pf8Fxa8RRcBkv/CQuuLCBAg0JZASf6nmvkvNGiLKgIk/4WG1ZcRIECgHYGrJvmM5L+UgM27CJD8lxJWX0qAAIH6BUry/6zkv9RAzasIkPyXGlZfToAAgXoFrib5VxOcWRcBkn81odUQAgQI1CVQkv/nzPyrCsqsigDJv6qwagwBAgTqEbh6ks9L/vUEZKIlWy0CJP8JTE8JECBA4L8FDpT8/xuj0mebLQIk/0oDqlkECBBYtkBJ/l8w8192GNb1/RstAiT/dbF6EwECBMYTuGaSr0r+TQV+vUWA5N9UWDWWAAECixO4luS/OOwZf9POigDJf8bgPo4AAQK9CByS5DQz/6bDub0iQPJvOqwaT4AAgfkJSP7zs130J08XAZL/oiPg+wgQINCIwC8k+ZqZfyPRWl8z14oAyX99Xt5FgACB4QSum+TrAyX/EweKcCkCfmWg/uoqAQIECKxT4BeTnD5Q8v9pkvOS3GmdPt5GgAABAgS6E7hBkjMHS/6lAFAEdDeUdYgAAQIE1itww4GTvyJgvaPE+wgQIECgK4GS/L856Mx/Lfmv/bQ7oKuhrTMECBAgsD2BG0n+P9sFsFYAlJ+KgO2NFv9PgAABAl0I3DjJWWb+FykAFAFdDG+dIECAAIFtCRwq+W8z8dsSsK3R4v8IECBAoAuBkvzPNvPfaQFgS0AXw10nCBAgQKAI3DzJdyT/dSX/ta0Bjgmw7BAgQIBA0wK3SPJdyX9DyX+tCDg/yV2bjr7GEyBAgMCQApL/f13wZy2hb+anImDIRUenCRAg0K7A4Wb+m5r1b6tIUAS0uxxoOQECBIYS+OUk37PZf2YFQCkKFAFDLUI6S4AAgfYEbin5zzTxT24RUAS0tzxoMQECBIYQuHWSct/3yaTl+Ww9nB0wxKKkkwQIEGhHoNzV71uS/0KKH1sC2lkutJQAAQJdC1wpyRmS/0KS/9oWFVsCul6kdI4AAQL1C+yW5O2S/0KTvyKg/uVCCwkQINC9wB9L/ktJ/mtFgN0B3S9iOkiAAIH6BPZP8m0FwFILgFIIlN0Bv1vf8NAiAgQIEOhV4G8k/6Unf1sCel269IsAAQKVCuzjfP9qkv9aEWBLQKULi2YRIECgJ4EHmP1XVwCUQsAxAT0tZfpCgACBCgXeoQCosgBwTECFC4smESBAoBeBSyb5kQKg2gLAloBeljT9IECAQGUCvyb5V538HRNQ2QKjOQQIEOhF4CEKgCYKAFsCelni9IMAAQKVCDxNAdBMAeCYgEoWGs0gQIBADwLPVwA0VQDYEtDDUqcPBAgQqEDgJR0VAG9KckFH/Vnb/7+tn99JcrkKxo8mECBAgECjAv+vk4T5uFX/ck2D3ouAc5LcptHxptkECBAgUInAUzsoAB4/ZVluatRrESD5TwXbSwIECBDYnMAxjRcAazP/6d73uCVA8p+OstcECBAgsGmBWzZcAEzP/KcRetoSIPlPR9drAgQIENiSwJ5Jzm2wCNjezH8ao4ctAZL/dFS9JkCAAIGZCLylsQJgZzP/aZSWtwRI/tPR9JoAAQIEZiZwr4YKgPXO/KdxWtwSIPlPR9FrAgQIEJipwF5Jzm6gCNjozH8aqaUtAZL/dPS8JkCAAIG5CDyh8gJgszP/aawWtgRI/tNR85oAAQIE5iZQrip3ZqVFwFZn/tNoD634OgGS/3S0vCZAgACBuQvcp8ICYFYz/2m8GrcESP7TUfKaAAECBBYisEuS11RUBMwr+a9h1lQESP5rUfGTAAECBJYisG+SL1ZQBMx6s//2MGvYHSD5by86/p8AAQIEFipwzSRfX2IRMO+Z/zTmMrcESP7T0fCaAAECBJYqcFiSs5ZQBPz5knq9jC0Bkv+Sgu1rCRAgQGDHAtdO8uUFFQE/TnK/HTdn7r9dZBEg+c89nL6AAAECBLYicPkkb5xzEXBGRfe3X8TuAMl/KyPS3xIgQIDAwgR2Xdkd8JAk355xIXBBkucnKUVGTY95bgmQ/GuKtLYQIECAwLoE9k9ybJKSxH66xX9vTnKzdX3rct40jyJA8l9OLH0rAQIECMxIYL8kD0/ywQ0WAacneXqSG82oHfP+mFkWAZL/vKPl8wkQIEBgoQJlq8BRSZ6Y5MQkJyV5f5K3J3ndasJ/YJLrJikXGmrtMYsiQPJvLeraS4AAAQIEkmzlwEDJ3xAiQIAAAQINC2ymCJD8Gw64phMgQIAAgTWBjRQBkv+amp8ECBAgQKADgfUUAZJ/B4HWBQIECBAgMC2woyJA8p/W8poAAQIECHQksK0iQPLvKMC6QoAAAQIEticwWQRI/ttT8v8ECBAgQKBDgVIE/KCiexl0SKxLBAgQIECgToGr1NksrSJAgAABAgQIECBAgAABAgQIECBAgAABAgQIECBAgAABAgQIECBAgAABAgQIECBAgAABAgQIECBAgAABAgQIECBAgAABAgQIECBAgAABAgQIECBAgAABAgQIECBAgAABAgQIECBAgAABAgQIECBAgAABAgQIECBAgAABAgQIECBAgAABAgQIECBAgAABAgQIECBAgAABAgQIECBAgAABAgQIECBAgAABAgQIECBAgAABAgQIECBAgAABAgQIECBAgAABAgQIECBAgAABAgQIECBAgAABAgQIECBAgAABAgQIECBAgAABAgQIECBAgAABAgQIECBAgAABAgQIECBAgAABAgQIECBAgAABAgQIECBAgAABAgQIECBAgAABAgQIECBAgAABAgQIECBAgAABAgQIECBAgAABAgQIECBAgAABAgQIECBAgAABAgQIECBAgAABAgQIECBAgAABAgQIECBAgAABAgQIECBAgAABAgQIECBAgAABAgQIECDQo8D/B5f0+ZIhRfkjAAAAAElFTkSuQmCC;fontColor=#B499FF;container=0;imageBackground=none;" parent="1" vertex="1">
          <mxGeometry x="408" y="323" width="34" height="34" as="geometry" />
        </mxCell>
        <mxCell id="qfa1btVLkUmNwRNvI4Ii-22" value="" style="curved=1;endArrow=classic;html=1;rounded=0;exitX=0.077;exitY=0.965;exitDx=0;exitDy=0;exitPerimeter=0;entryX=0.956;entryY=0.701;entryDx=0;entryDy=0;strokeColor=#D7CDF8;entryPerimeter=0;" parent="1" source="qfa1btVLkUmNwRNvI4Ii-5" target="qfa1btVLkUmNwRNvI4Ii-16" edge="1">
          <mxGeometry width="50" height="50" relative="1" as="geometry">
            <mxPoint x="400.00466094067235" y="376.32599999999996" as="sourcePoint" />
            <mxPoint x="367.15999999999974" y="359.9976695296637" as="targetPoint" />
            <Array as="points">
              <mxPoint x="380" y="370" />
              <mxPoint x="280" y="370" />
            </Array>
          </mxGeometry>
        </mxCell>
        <mxCell id="qfa1btVLkUmNwRNvI4Ii-23" value="" style="curved=1;endArrow=classic;html=1;rounded=0;exitX=0.015;exitY=0.869;exitDx=0;exitDy=0;exitPerimeter=0;entryX=0.934;entryY=0.744;entryDx=0;entryDy=0;strokeColor=#D7CDF8;entryPerimeter=0;" parent="1" source="qfa1btVLkUmNwRNvI4Ii-5" target="qfa1btVLkUmNwRNvI4Ii-17" edge="1">
          <mxGeometry width="50" height="50" relative="1" as="geometry">
            <mxPoint x="405" y="369" as="sourcePoint" />
            <mxPoint x="372" y="353" as="targetPoint" />
            <Array as="points">
              <mxPoint x="400" y="350" />
              <mxPoint x="390" y="360" />
            </Array>
          </mxGeometry>
        </mxCell>
        <mxCell id="qfa1btVLkUmNwRNvI4Ii-24" value="" style="curved=1;endArrow=classic;html=1;rounded=0;exitX=0.978;exitY=0.855;exitDx=0;exitDy=0;exitPerimeter=0;entryX=0.072;entryY=0.729;entryDx=0;entryDy=0;strokeColor=#D7CDF8;entryPerimeter=0;" parent="1" source="qfa1btVLkUmNwRNvI4Ii-5" target="qfa1btVLkUmNwRNvI4Ii-18" edge="1">
          <mxGeometry width="50" height="50" relative="1" as="geometry">
            <mxPoint x="449" y="355" as="sourcePoint" />
            <mxPoint x="468" y="348" as="targetPoint" />
            <Array as="points">
              <mxPoint x="451" y="361" />
              <mxPoint x="461" y="361" />
            </Array>
          </mxGeometry>
        </mxCell>
        <mxCell id="qfa1btVLkUmNwRNvI4Ii-25" value="" style="shape=flexArrow;endArrow=classic;html=1;rounded=0;fillColor=#D7CDF8;strokeColor=none;" parent="1" edge="1">
          <mxGeometry width="50" height="50" relative="1" as="geometry">
            <mxPoint x="210" y="359" as="sourcePoint" />
            <mxPoint x="210" y="410" as="targetPoint" />
          </mxGeometry>
        </mxCell>
        <mxCell id="qfa1btVLkUmNwRNvI4Ii-26" value="" style="shape=flexArrow;endArrow=classic;html=1;rounded=0;fillColor=#D7CDF8;strokeColor=none;" parent="1" edge="1">
          <mxGeometry width="50" height="50" relative="1" as="geometry">
            <mxPoint x="340" y="359" as="sourcePoint" />
            <mxPoint x="340" y="410" as="targetPoint" />
          </mxGeometry>
        </mxCell>
        <mxCell id="qfa1btVLkUmNwRNvI4Ii-27" value="" style="shape=flexArrow;endArrow=classic;html=1;rounded=0;fillColor=#D7CDF8;strokeColor=none;" parent="1" edge="1">
          <mxGeometry width="50" height="50" relative="1" as="geometry">
            <mxPoint x="510" y="359" as="sourcePoint" />
            <mxPoint x="510" y="410" as="targetPoint" />
          </mxGeometry>
        </mxCell>
        <mxCell id="QekVXu27Tq2jHZh64bR4-2" value="Decrypt" style="ellipse;whiteSpace=wrap;html=1;fillColor=#D7CDF8;strokeColor=none;fontSize=20;fontFamily=Arial;" parent="1" vertex="1">
          <mxGeometry x="290" y="310" width="100" height="50" as="geometry" />
        </mxCell>
        <mxCell id="QekVXu27Tq2jHZh64bR4-3" value="Decrypt" style="ellipse;whiteSpace=wrap;html=1;fillColor=#D7CDF8;strokeColor=none;fontSize=20;fontFamily=Arial;" parent="1" vertex="1">
          <mxGeometry x="460" y="310" width="100" height="50" as="geometry" />
        </mxCell>
        <mxCell id="zwcrxg7O7X1PJrM4IXmS-1" value="" style="html=1;verticalLabelPosition=bottom;align=center;labelBackgroundColor=#ffffff;verticalAlign=top;strokeWidth=2;strokeColor=#6241c5;shadow=0;dashed=0;shape=mxgraph.ios7.icons.flag;fillColor=#d7cdf8;" vertex="1" parent="1">
          <mxGeometry x="195" y="417" width="30" height="30" as="geometry" />
        </mxCell>
        <mxCell id="zwcrxg7O7X1PJrM4IXmS-2" value="" style="html=1;verticalLabelPosition=bottom;align=center;labelBackgroundColor=#ffffff;verticalAlign=top;strokeWidth=2;strokeColor=#6241c5;shadow=0;dashed=0;shape=mxgraph.ios7.icons.flag;fillColor=#d7cdf8;" vertex="1" parent="1">
          <mxGeometry x="325" y="417" width="30" height="30" as="geometry" />
        </mxCell>
        <mxCell id="zwcrxg7O7X1PJrM4IXmS-3" value="" style="html=1;verticalLabelPosition=bottom;align=center;labelBackgroundColor=#ffffff;verticalAlign=top;strokeWidth=2;strokeColor=#6241c5;shadow=0;dashed=0;shape=mxgraph.ios7.icons.flag;fillColor=#d7cdf8;" vertex="1" parent="1">
          <mxGeometry x="495" y="417" width="30" height="30" as="geometry" />
        </mxCell>
      </root>
    </mxGraphModel>
  </diagram>
</mxfile>
